<svg xmlns="http://www.w3.org/2000/svg" xmlns:xlink="http://www.w3.org/1999/xlink" width="154" height="21" viewBox="0 0 154 21">
  <defs>
    <polygon id="gigantum-logo-a" points="0 .103 1.573 .103 1.573 5.618 0 5.618"/>
    <polygon id="gigantum-logo-c" points=".104 .177 5.618 .177 5.618 1.75 .104 1.75"/>
    <polygon id="gigantum-logo-e" points=".11 .194 6.802 .194 6.802 12.366 .11 12.366"/>
  </defs>
  <g fill="none" fill-rule="evenodd">
    <path fill="#FFF" d="M35.511 13.2845125C36.082375 12.6128042 36.3682083 11.6928875 36.3682083 10.5247625 36.3682083 9.35692917 36.082375 8.4405125 35.511 7.7746375 34.939625 7.10905417 34.1454167 6.77655417 33.1280833 6.77655417 32.1235833 6.77655417 31.329375 7.10905417 30.7454583 7.7746375 30.16125 8.4405125 29.8692917 9.35692917 29.8692917 10.5247625 29.8692917 11.7054292 30.16125 12.6285542 30.7454583 13.2938458 31.329375 13.9597208 32.1235833 14.2922208 33.1280833 14.2922208 34.1454167 14.2922208 34.939625 13.9565125 35.511 13.2845125M36.4694167 6.22997083C36.850625 6.22997083 37.1592083 6.5391375 37.1592083 6.92034583L37.1592083 14.9140542C37.1592083 16.2198458 36.8515 17.2053875 36.236375 17.8715542 35.6209583 18.5368458 34.7039583 18.8696375 33.48625 18.8696375 31.9990417 18.8696375 30.734375 18.4548875 29.6925417 17.6248042 29.6534583 17.5935958 29.6429583 17.5378875 29.6680417 17.4944292 29.8450833 17.1840958 30.2437917 17.0890125 30.5468333 17.2777208 30.961 17.5358458 31.34425 17.7242625 31.6965833 17.8429708 32.1988333 18.0127208 32.8017083 18.0973042 33.5049167 18.0973042 34.447 18.0973042 35.16275 17.8365542 35.6521667 17.3156375 36.1421667 16.7944292 36.3871667 16.0314292 36.3871667 15.0272208L36.3871667 13.4942208C36.3871667 13.3895125 36.2489167 13.3545125 36.197875 13.4460958 35.9412083 13.9080958 35.5926667 14.2750125 35.153125 14.5465542 34.594 14.8921792 33.919375 15.0648458 33.1280833 15.0648458 32.3245417 15.0648458 31.612 14.8761375 30.9904583 14.4995958 30.368625 14.1227625 29.8850417 13.5890125 29.5397083 12.8983458 29.194375 12.2079708 29.022 11.4169708 29.022 10.5247625 29.022 9.6331375 29.194375 8.84534583 29.5397083 8.16109583 29.8850417 7.47655417 30.368625 6.9460125 30.9904583 6.56917917 31.612 6.1926375 32.3245417 6.00392917 33.1280833 6.00392917 33.9068333 6.00392917 34.572125 6.17367917 35.125125 6.51259583 35.5640833 6.78209583 35.916125 7.1428875 36.1806667 7.59467917 36.232875 7.6836375 36.3682083 7.64747083 36.3682083 7.54422083L36.3682083 6.33117917C36.3682083 6.27547083 36.4134167 6.22997083 36.4694167 6.22997083M40.2806671 14.8648977L40.2806671 6.64601674C40.2806671 6.59102457 40.3377994 6.54610951 40.4085698 6.54610951 40.8899557 6.54610951 41.2806671 6.85130161 41.2806671 7.22760924L41.2806671 15.4464902C41.2806671 15.5014824 41.2235348 15.5461095 41.1527644 15.5461095 40.6713785 15.5461095 40.2806671 15.2412053 40.2806671 14.8648977M40.4074019 2.54610951L40.7722668 2.54610951C41.0527635 2.54610951 41.2806671 2.77727834 41.2806671 3.06262157L41.2806671 3.41735255C41.2806671 3.4885956 41.2240564 3.54610951 41.1539322 3.54610951L40.7817628 3.54610951C40.5049184 3.54610951 40.2806671 3.3182802 40.2806671 3.03664754L40.2806671 2.67449541C40.2806671 2.60362342 40.3372778 2.54610951 40.4074019 2.54610951M50.2222 13.2845125C50.793575 12.6128042 51.0794083 11.6928875 51.0794083 10.5247625 51.0794083 9.35692917 50.793575 8.4405125 50.2222 7.7746375 49.650825 7.10905417 48.8566167 6.77655417 47.8392833 6.77655417 46.8347833 6.77655417 46.040575 7.10905417 45.4566583 7.7746375 44.87245 8.4405125 44.5804917 9.35692917 44.5804917 10.5247625 44.5804917 11.7054292 44.87245 12.6285542 45.4566583 13.2938458 46.040575 13.9597208 46.8347833 14.2922208 47.8392833 14.2922208 48.8566167 14.2922208 49.650825 13.9565125 50.2222 13.2845125M51.1806167 6.22997083C51.561825 6.22997083 51.8704083 6.5391375 51.8704083 6.92034583L51.8704083 14.9140542C51.8704083 16.2198458 51.5627 17.2053875 50.947575 17.8715542 50.3321583 18.5368458 49.4151583 18.8696375 48.19745 18.8696375 46.7102417 18.8696375 45.445575 18.4548875 44.4037417 17.6248042 44.3646583 17.5935958 44.3541583 17.5378875 44.37895 17.4944292 44.5562833 17.1840958 44.9547 17.0890125 45.2580333 17.2777208 45.6722 17.5358458 46.05545 17.7242625 46.4077833 17.8429708 46.9100333 18.0127208 47.5129083 18.0973042 48.2161167 18.0973042 49.1582 18.0973042 49.87395 17.8365542 50.3633667 17.3156375 50.8533667 16.7944292 51.0983667 16.0314292 51.0983667 15.0272208L51.0983667 13.4942208C51.0983667 13.3895125 50.9601167 13.3545125 50.909075 13.4460958 50.6524083 13.9080958 50.3038667 14.2750125 49.864325 14.5465542 49.3052 14.8921792 48.630575 15.0648458 47.8392833 15.0648458 47.0357417 15.0648458 46.3232 14.8761375 45.7016583 14.4995958 45.079825 14.1227625 44.5962417 13.5890125 44.2509083 12.8983458 43.905575 12.2079708 43.7332 11.4169708 43.7332 10.5247625 43.7332 9.6331375 43.905575 8.84534583 44.2509083 8.16109583 44.5962417 7.47655417 45.079825 6.9460125 45.7016583 6.56917917 46.3232 6.1926375 47.0357417 6.00392917 47.8392833 6.00392917 48.6180333 6.00392917 49.283325 6.17367917 49.836325 6.51259583 50.2752833 6.78209583 50.627325 7.1428875 50.8918667 7.59467917 50.944075 7.6836375 51.0794083 7.64747083 51.0794083 7.54422083L51.0794083 6.33117917C51.0794083 6.27547083 51.1246167 6.22997083 51.1806167 6.22997083M59.4615583 14.2828292C59.9136417 14.0130375 60.2683083 13.6394125 60.5255583 13.1619542 60.7828083 12.6847875 60.9120167 12.1449125 60.9120167 11.5420375L60.9120167 10.9651208C60.9120167 10.9094125 60.8665167 10.8639125 60.8108083 10.8639125L60.5541417 10.8639125C59.2355167 10.8639125 58.230725 10.9175792 57.5400583 11.0240375 56.8493917 11.1307875 56.3658083 11.3130792 56.0896 11.5703292 55.8131 11.8278708 55.6754333 12.2079125 55.6754333 12.7098708 55.6754333 13.2876625 55.8886417 13.7619125 56.3156417 14.1320375 56.7426417 14.5027458 57.2825167 14.6879542 57.93585 14.6879542 58.5008083 14.6879542 59.009475 14.5532042 59.4615583 14.2828292M61.721975 9.37582917L61.721975 15.2462042C61.721975 15.3019125 61.6767667 15.3471208 61.6207667 15.3471208 61.22935 15.3471208 60.9120167 15.0297875 60.9120167 14.6383708L60.9120167 14.0649542C60.9120167 13.9643292 60.7796 13.9243708 60.7265167 14.0095375 60.4669333 14.4257458 60.1300583 14.7588292 59.7158917 15.0079125 59.1943917 15.3220375 58.6011417 15.4792458 57.93585 15.4792458 57.3580583 15.4792458 56.827225 15.3593708 56.344225 15.1210792 55.86035 14.8827875 55.4773917 14.5532042 55.1950583 14.1320375 54.9124333 13.7114542 54.7712667 13.2500375 54.7712667 12.7474958 54.7712667 12.0696625 54.9500583 11.5452458 55.3079333 11.1748292 55.6658083 10.8044125 56.2561417 10.5375375 57.0786417 10.3742042 57.90085 10.2111625 59.053225 10.1294958 60.535475 10.1294958L60.8108083 10.1294958C60.8665167 10.1294958 60.9120167 10.0839958 60.9120167 10.0282875L60.9120167 9.33820417C60.9120167 8.44657917 60.73585 7.7970375 60.3843917 7.3884125 60.0326417 6.9806625 59.4738083 6.77649583 58.7081833 6.77649583 58.1175583 6.77649583 57.574475 6.85495417 57.0786417 7.01157917 56.75985 7.1127875 56.4320167 7.2536625 56.0951417 7.4347875 55.7722667 7.60862083 55.37035 7.4969125 55.1921417 7.1766625 55.1670583 7.13087083 55.1793083 7.0734125 55.2218917 7.0436625 55.6690167 6.72982917 56.181475 6.48074583 56.7583917 6.29582917 57.3671 6.1012875 57.9796 6.00387083 58.5950167 6.00387083 60.6795583 6.00387083 61.721975 7.12824583 61.721975 9.37582917M72.1387917 9.4700375L72.1387917 15.2462042C72.1387917 15.3019125 72.0935833 15.3471208 72.0375833 15.3471208 71.6566667 15.3471208 71.3477917 15.0382458 71.3477917 14.6573292L71.3477917 9.54557917C71.3477917 8.5784125 71.1526667 7.87199583 70.7635833 7.4260375 70.3742083 6.9806625 69.7465417 6.7575375 68.88 6.7575375 67.9128333 6.7575375 67.1375833 7.0559125 66.5536667 7.65237083 65.96975 8.24882917 65.6777917 9.04332917 65.6777917 10.0349958L65.6777917 15.2462042C65.6777917 15.3019125 65.6322917 15.3471208 65.5765833 15.3471208 65.195375 15.3471208 64.8867917 15.0382458 64.8867917 14.6570375L64.8867917 6.33112083C64.8867917 6.2754125 64.9317083 6.23020417 64.9877083 6.23020417 65.3584167 6.23020417 65.6588333 6.53062083 65.6588333 6.9010375L65.6588333 7.46570417C65.6588333 7.5677875 65.792125 7.60482917 65.8452083 7.5179125 66.1112083 7.08362083 66.4664583 6.73945417 66.9115417 6.4845375 67.4700833 6.1642875 68.1079583 6.00387083 68.8237083 6.00387083 71.0336667 6.00387083 72.1387917 7.15945417 72.1387917 9.4700375M79.4706208 15.3167583L79.4706208 15.3188C79.4679958 15.3680917 79.4315375 15.4086333 79.3828292 15.41505 79.1430792 15.4450917 78.8884542 15.4599667 78.6183708 15.4599667 77.6768708 15.4599667 76.9514958 15.1872583 76.4428292 14.6409667 75.9344542 14.094675 75.6801208 13.363175 75.6801208 12.446175L75.6801208 7.00950833C75.6801208 6.95350833 75.6349125 6.9083 75.5789125 6.9083L73.9540375 6.9083C73.8980375 6.9083 73.8528292 6.86309167 73.8528292 6.80709167 73.8528292 6.4883 74.1112458 6.230175 74.4297458 6.230175L75.5789125 6.230175C75.6349125 6.230175 75.6801208 6.184675 75.6801208 6.12896667L75.6801208 3.48675833C75.6801208 3.43105 75.7253292 3.38584167 75.7813292 3.38584167 76.1622458 3.38584167 76.4711208 3.694425 76.4711208 4.07563333L76.4711208 6.12896667C76.4711208 6.184675 76.5163292 6.230175 76.5720375 6.230175L79.1203292 6.230175C79.1760375 6.230175 79.2215375 6.27538333 79.2215375 6.33109167 79.2215375 6.64988333 78.9631208 6.9083 78.6443292 6.9083L76.5720375 6.9083C76.5163292 6.9083 76.4711208 6.95350833 76.4711208 7.00950833L76.4711208 12.2767167C76.4711208 13.08055 76.6595375 13.68955 77.0360792 14.1040083 77.4129125 14.5184667 77.9714542 14.72555 78.7125792 14.72555 78.7706208 14.72555 78.8272042 14.7249667 78.8829125 14.7232167 79.2157042 14.7144667 79.4878292 14.98455 79.4706208 15.3167583M88.2815792 6.91996667L88.2815792 15.246175C88.2815792 15.3018833 88.2363708 15.3473833 88.1803708 15.3473833 87.8099542 15.3473833 87.5095375 15.046675 87.5095375 14.6762583L87.5095375 14.0214667C87.5095375 13.9185083 87.3762458 13.882925 87.3214125 13.96955 87.0489958 14.3994667 86.6943292 14.742175 86.2568292 14.99855 85.7108292 15.3188 85.0916208 15.4792167 84.4012458 15.4792167 83.3465792 15.4792167 82.5459542 15.18405 81.9996625 14.5940083 81.4533708 14.0033833 81.1800792 13.1368417 81.1800792 11.9940917L81.1800792 6.33109167C81.1800792 6.27538333 81.2255792 6.230175 81.2812875 6.230175 81.6624958 6.230175 81.9713708 6.53905 81.9713708 6.92025833L81.9713708 11.9188417C81.9713708 12.873175 82.1659125 13.5763833 82.5552875 14.0284667 82.9443708 14.48055 83.5472458 14.7065917 84.3636208 14.7065917 85.3054125 14.7065917 86.0619958 14.4085083 86.6336625 13.81205 87.2050375 13.2155917 87.4905792 12.4210917 87.4905792 11.4291333L87.4905792 6.33109167C87.4905792 6.27538333 87.5357875 6.230175 87.5917875 6.230175 87.9727042 6.230175 88.2815792 6.53875833 88.2815792 6.91996667M104.029596 9.4700375L104.029596 15.2462042C104.029596 15.3019125 103.984388 15.3471208 103.928388 15.3471208 103.547471 15.3471208 103.238304 15.0382458 103.238304 14.6570375L103.238304 9.54557917C103.238304 8.5784125 103.062429 7.87199583 102.710971 7.4260375 102.358929 6.9806625 101.800096 6.7575375 101.034179 6.7575375 100.155388 6.7575375 99.4548042 7.05270417 98.9338875 7.64274583 98.4126792 8.23337083 98.1525125 9.03049583 98.1525125 10.0349958L98.1525125 15.2462042C98.1525125 15.3019125 98.1070125 15.3471208 98.0513042 15.3471208 97.6700958 15.3471208 97.3612208 15.0382458 97.3612208 14.6570375L97.3612208 9.54557917C97.3612208 8.5784125 97.1850542 7.87199583 96.8335958 7.4260375 96.4818458 6.9806625 95.9230125 6.7575375 95.1570958 6.7575375 94.2780125 6.7575375 93.5780125 7.05270417 93.0568042 7.64274583 92.5355958 8.23337083 92.2751375 9.03049583 92.2751375 10.0349958L92.2751375 15.2462042C92.2751375 15.3019125 92.2299292 15.3471208 92.1742208 15.3471208 91.7930125 15.3471208 91.4838458 15.0382458 91.4838458 14.6570375L91.4838458 6.33112083C91.4838458 6.2754125 91.5293458 6.23020417 91.5850542 6.23020417 91.9557625 6.23020417 92.2564708 6.53062083 92.2564708 6.9010375L92.2564708 7.4041625C92.2564708 7.50682917 92.3920958 7.5441625 92.4434292 7.45549583 92.6808458 7.0454125 92.9920542 6.71845417 93.3773458 6.47462083 93.8731792 6.16107917 94.4600125 6.00387083 95.1384292 6.00387083 96.5092625 6.00387083 97.4183875 6.54345417 97.8663875 7.6220375 97.8984708 7.69932917 98.0052208 7.70662083 98.0457625 7.63370417 98.3076792 7.16120417 98.6789708 6.78145417 99.1602208 6.49387083 99.7062208 6.16749583 100.324846 6.00387083 101.015513 6.00387083 103.024513 6.00387083 104.029596 7.15945417 104.029596 9.4700375M14.1879792.667916667C13.3164792.340375 12.4050208.131833333 11.4649792.0449166667 10.5249375-.0414166667 9.5904375-.00320833333 8.67372917.158958333 9.6525625.412416667 10.5616875.894541667 11.3241042 1.57295833 12.1970625 1.045625 13.1796875.737625 14.1879792.667916667M4.77035417 3.60511667C5.01447917 2.61636667 5.4901875 1.70549167 6.15197917.943658333 4.4541875 1.72124167 2.9763125 2.94974167 1.9009375 4.47661667 2.77127083 3.96503333 3.75389583 3.66403333 4.77035417 3.60511667M5.32064167 3.5959875C5.46268333 3.5994875 5.60239167 3.60765417 5.73801667 3.62019583 6.796475 3.71790417 7.80914167 4.07490417 8.68851667 4.6573625 9.083725 3.67940417 9.71693333 2.8119875 10.534475 2.13269583 10.6388917 2.04607083 10.749725 1.96032083 10.865225 1.87690417 9.89368333 1.0532375 8.67743333.5667375 7.3976.493820833 6.383475 1.2781125 5.655475 2.36719583 5.32064167 3.5959875"/>
    <g transform="translate(0 6.708)">
      <mask id="gigantum-logo-b" fill="#fff">
        <use xlink:href="#gigantum-logo-a"/>
      </mask>
      <path fill="#FFF" d="M0.0450041667,2.82665833 C-0.0416208333,3.7667 -0.00312083333,4.7012 0.1593375,5.61790833 C0.412504167,4.639075 0.894920833,3.72995 1.57304583,2.96753333 C1.0457125,2.094575 0.738004167,1.11224167 0.668004167,0.103366667 C0.340754167,0.975158333 0.131920833,1.88690833 0.0450041667,2.82665833" mask="url(#gigantum-logo-b)"/>
    </g>
    <path fill="#FFF" d="M4.6606875 4.14458333C3.39135417 4.249 2.18764583 4.76495833 1.23097917 5.61866667 1.06852083 6.89004167 1.32402083 8.17483333 1.9560625 9.28025 2.0584375 9.18254167 2.16197917 9.09066667 2.26814583 9.00229167 3.08539583 8.323 4.05402083 7.85925 5.08797917 7.64983333 4.67614583 6.67858333 4.5101875 5.6175 4.60789583 4.55933333 4.62072917 4.42166667 4.63822917 4.28429167 4.6606875 4.14458333M5.68922083 4.1482875C5.53230417 4.13370417 5.36897083 4.12612083 5.2021375 4.1246625 5.17267917 4.2891625 5.15109583 4.4484125 5.13622083 4.60795417 5.04259583 5.62295417 5.21292917 6.64087083 5.62942917 7.56370417 5.8723875 7.53599583 6.1165125 7.52199583 6.3606375 7.52199583 7.0046375 7.52199583 7.6468875 7.6185375 8.26405417 7.8092875 8.16167917 6.92524583 8.24334583 6.02545417 8.50497083 5.17437083 7.6740125 4.59570417 6.70422083 4.2419125 5.68922083 4.1482875M.943920833 14.8479333C1.72150417 16.545725 2.9497125 18.0238917 4.4765875 19.098975 3.96529583 18.2289333 3.66400417 17.2463083 3.6050875 16.2295583 2.6163375 15.9854333 1.70575417 15.5100167.943920833 14.8479333M2.13310417 10.465525C2.04589583 10.3608167 1.9604375 10.250275 1.87702083 10.1350667 1.05335417 11.1063167.566854167 12.3225667.494229167 13.6024 1.2779375 14.616525 2.36760417 15.344525 3.59639583 15.6793583 3.5993125 15.5376083 3.60777083 15.3993583 3.6203125 15.2619833 3.71802083 14.203525 4.07502083 13.1908583 4.65747917 12.3114833 3.6798125 11.9159833 2.81210417 11.282775 2.13310417 10.465525M5.3235 8.14473333C4.326875 8.323525 3.39091667 8.75898333 2.60720833 9.41056667 2.484125 9.51265 2.36454167 9.62085833 2.24583333 9.73810833 2.34120833 9.87519167 2.44008333 10.0049833 2.541 10.1263167 3.19229167 10.9103167 4.03258333 11.5094 4.979625 11.8678583 5.53379167 11.170775 6.22883333 10.59415 7.016625 10.178525 6.318375 9.625525 5.74029167 8.93165 5.3235 8.14473333M7.55883333 9.92349167C7.93595833 9.76745 8.32795833 9.64815833 8.72841667 9.56678333 8.56858333 9.19053333 8.4455 8.79999167 8.36091667 8.4007 7.569625 8.11661667 6.72466667 8.00461667 5.88875 8.07140833 6.30641667 8.798825 6.876625 9.43174167 7.55883333 9.92349167"/>
    <g transform="translate(6.708 19.25)">
      <mask id="gigantum-logo-d" fill="#fff">
        <use xlink:href="#gigantum-logo-c"/>
      </mask>
      <path fill="#FFF" d="M0.1036875,1.08208333 C0.975479167,1.40933333 1.8869375,1.61816667 2.82697917,1.70508333 C3.76702083,1.79170833 4.70152083,1.75320833 5.61822917,1.59075 C4.63939583,1.33758333 3.72997917,0.855166667 2.96785417,0.17675 C2.09460417,0.704375 1.11227083,1.01208333 0.1036875,1.08208333" mask="url(#gigantum-logo-d)"/>
    </g>
    <path fill="#FFF" d="M7.6496875 15.9120792C6.67872917 16.3239125 5.61735417 16.4892875 4.5591875 16.3921625 4.4218125 16.3793292 4.2844375 16.3618292 4.14472917 16.3393708 4.24914583 17.6084125 4.76510417 18.8127042 5.6188125 19.7690792 6.8901875 19.9324125 8.17497917 19.6760375 9.2806875 19.0439958 9.1826875 18.9410375 9.08964583 18.8363292 9.00272917 18.7319125 8.3234375 17.9143708 7.8596875 16.9457458 7.6496875 15.9120792M5.174225 12.4949417C4.59614167 13.3261917 4.24235 14.2956917 4.14843333 15.3106917 4.13385 15.46965 4.125975 15.63065 4.12480833 15.797775 4.28930833 15.8272333 4.44885 15.8488167 4.6081 15.8636917 5.6231 15.9573167 6.640725 15.7869833 7.56385 15.3704833 7.46264167 14.4858583 7.54664167 13.58665 7.80943333 12.7358583 6.92451667 12.8379417 6.02530833 12.756275 5.174225 12.4949417M7.63460833 10.4680917C6.82056667 10.8277167 6.09694167 11.3684667 5.52235833 12.0430917 6.33144167 12.2621333 7.182525 12.3067583 8.0129 12.1720083 8.21385833 11.6869667 8.4749 11.2275917 8.78931667 10.8058417 8.899275 10.6579667 9.01710833 10.5135917 9.14106667 10.3744667 9.07923333 10.2718 9.020025 10.167675 8.964025 10.0618 8.50581667 10.14405 8.05956667 10.2802583 7.63460833 10.4680917M19.099325 16.523325C18.2292833 17.0346167 17.2463667 17.3356167 16.2299083 17.394825 15.9857833 18.383575 15.5097833 19.2941583 14.8479917 20.0559917 16.546075 19.2784083 18.0236583 18.0502 19.099325 16.523325M12.3118042 16.3424625C11.9165958 17.3204208 11.2833875 18.1875458 10.4658458 18.8668375 10.3611375 18.9540458 10.2505958 19.0395042 10.1350958 19.1229208 11.1063458 19.9462958 12.3228875 20.4327958 13.6027208 20.5057125 14.6165542 19.7220042 15.3442625 18.6326292 15.6793875 17.4038375 15.5382208 17.4003375 15.3996792 17.3924625 15.2620125 17.3796292 14.2038458 17.2822125 13.1911792 16.9252125 12.3118042 16.3424625M10.1787 13.9834917C9.6257 14.6817417 8.931825 15.259825 8.14490833 15.6766167 8.3237 16.6732417 8.75915833 17.6089083 9.41045 18.3929083 9.51136667 18.51395 9.62103333 18.6347 9.73828333 18.7537 9.87536667 18.6586167 10.0051583 18.5597417 10.1264917 18.4591167 10.9107833 17.8072417 11.5098667 16.96695 11.8680333 16.0202 11.1706583 15.466325 10.5946167 14.7709917 10.1787 13.9834917M9.21485833 11.1229125C8.89898333 11.5467042 8.642025 12.0113292 8.45156667 12.5036625 8.13015 13.3334542 8.00065 14.2277042 8.07181667 15.1111625 8.79865 14.6934958 9.43215 14.1232875 9.9239 13.4410792 9.72294167 12.9557458 9.58294167 12.4467875 9.50681667 11.9261625 9.47035833 11.6764958 9.44848333 11.4207042 9.441775 11.1654958 9.43885833 11.0447458 9.438275 10.9385792 9.44031667 10.8391208 9.36185833 10.9318708 9.28660833 11.0266625 9.21485833 11.1229125M16.3393125 16.8551542C17.6089375 16.7510292 18.8126458 16.2347792 19.7693125 15.3810708 19.9317708 14.1099875 19.6759792 12.8251958 19.0442292 11.7194875 18.9415625 11.8174875 18.8380208 11.9093625 18.7321458 11.9974458 17.9146042 12.6767375 16.9459792 13.1404875 15.9123125 13.3501958 16.3241458 14.3211542 16.4901042 15.3822375 16.3923958 16.4406958 16.3798542 16.5763208 16.3620625 16.7148625 16.3393125 16.8551542M15.798125 16.875075C15.8275833 16.7108667 15.8491667 16.551325 15.8640417 16.3917833 15.9576667 15.3764917 15.7873333 14.3588667 15.3708333 13.4360333 14.4862083 13.5375333 13.5867083 13.4535333 12.7362083 13.19045 12.838875 14.0747833 12.7569167 14.974575 12.4952917 15.8256583 13.32625 16.4040333 14.29575 16.757825 15.31075 16.85145 15.4702917 16.8660333 15.6312917 16.8739083 15.798125 16.875075M10.2225667 11.7187875C10.1350667 11.6359542 10.059525 11.5609958 9.9904 11.4892458 10.0003167 11.6102875 10.0143167 11.7307458 10.0318167 11.8494542 10.1079417 12.3724125 10.2549417 12.8825375 10.4684417 13.3655375 10.827775 14.1795792 11.3688167 14.9032042 12.0434417 15.4777875 12.2624833 14.6681208 12.3068167 13.8170375 12.1723583 12.9872458 11.6876083 12.7862875 11.228525 12.5255375 10.8061917 12.2108292 10.6029 12.0591625 10.4066083 11.8937875 10.2225667 11.7187875"/>
    <path fill="#FFF" d="M19.3018292 9.2701C19.1148708 9.41068333 18.8494542 9.37335 18.7088708 9.1861 18.5682875 8.99914167 18.6059125 8.733725 18.7931625 8.59314167 18.9798292 8.45255833 19.2455375 8.49018333 19.3858292 8.67743333 19.5267042 8.8641 19.4890792 9.12980833 19.3018292 9.2701M20.8196625 10.7030583C20.8009958 10.2568083 20.6846208 9.669975 20.5489958 9.11814167 20.3051625 8.1256 19.4322042 7.41655833 18.4107875 7.39030833 17.3817875 7.36376667 15.9683708 7.3521 14.4467458 7.41101667 14.1203708 7.42385 14.0588292 7.8841 14.3712042 7.97918333 16.6380375 8.67014167 18.0505792 9.473975 19.0445792 10.7756833 19.7641208 11.6244333 20.2179542 12.70885 20.2681208 13.9064333 20.2724958 14.00385 20.2733708 14.1006833 20.2719125 14.1975167 20.2757042 14.1931417 20.2792042 14.1887667 20.2824125 14.1846833 20.6773292 13.1020167 20.8712875 11.925725 20.8196625 10.7030583M109.030629 15.0051708C108.316337 14.6134625 107.769754 14.0572542 107.390587 13.3368375 107.011421 12.6167125 106.821838 11.7761292 106.821838 10.8153792 106.821838 9.41012917 107.247962 8.2408375 108.100504 7.30925417 108.106046 7.30312917 108.112171 7.29700417 108.118004 7.29117083 109.226046 6.21667083 110.696921 5.78325417 112.530629 5.99500417 112.537921 5.99587917 112.545796 5.99704583 112.552796 5.99850417 113.602504 6.18867083 114.409837 6.5232125 114.975088 7.0000875 115.043921 7.05812917 115.064338 7.15612917 115.030213 7.23954583L115.009213 7.29087917C114.715213 8.00925417 113.901754 8.32862917 113.176379 8.05242083 113.172004 8.05067083 113.167921 8.0492125 113.163546 8.04775417 112.727504 7.88325417 112.294088 7.80100417 111.864754 7.80100417 111.042838 7.80100417 110.404962 8.0570875 109.949962 8.5689625 109.494962 9.0808375 109.267463 9.81729583 109.267463 10.7774625 109.267463 11.7253792 109.494962 12.4554208 109.949962 12.9672958 110.404962 13.4791708 111.042838 13.7352542 111.864754 13.7352542 112.294088 13.7352542 112.727504 13.6530042 113.163546 13.4885042 113.167921 13.4867542 113.172004 13.4850042 113.176379 13.4835458 113.903213 13.2070458 114.718421 13.5255458 115.015921 14.2442125L115.028171 14.2748375C115.063754 14.3597125 115.041879 14.4594625 114.971296 14.5180875 114.585421 14.8371708 114.105921 15.0909208 113.533379 15.2799208 112.901046 15.4884625 112.243921 15.5928792 111.561421 15.5928792 110.588129 15.5928792 109.744338 15.3971708 109.030629 15.0051708M116.584913 13.2813625L116.584913 2.28552917C116.584913 2.16944583 116.678829 2.07552917 116.794913 2.07552917 117.987829 2.07552917 118.954704 3.04269583 118.954704 4.23532083L118.954704 15.2314458C118.954704 15.3472375 118.860496 15.4411542 118.744413 15.4411542 117.551496 15.4411542 116.584913 14.4742792 116.584913 13.2813625M121.400562 13.2813625L121.400562 6.38052917C121.400562 6.26444583 121.494479 6.17052917 121.610563 6.17052917 122.803479 6.17052917 123.770354 7.13769583 123.770354 8.33032083L123.770354 15.2314458C123.770354 15.3472375 123.676146 15.4411542 123.560063 15.4411542 122.367146 15.4411542 121.400562 14.4742792 121.400562 13.2813625M121.579062 2.07552917L122.713354 2.07552917C123.293188 2.07552917 123.763646 2.54540417 123.763646 3.12552917L123.763646 4.00169583C123.763646 4.1069875 123.678188 4.19244583 123.572896 4.19244583L122.438604 4.19244583C121.858479 4.19244583 121.388312 3.72227917 121.388312 3.14215417L121.388312 2.2659875C121.388312 2.1609875 121.473771 2.07552917 121.579062 2.07552917M128.746917 8.21823333C128.403042 8.57844167 128.177583 9.079525 128.069958 9.7209 128.048667 9.84748333 128.150458 9.96210833 128.278792 9.96210833L132.097 9.96210833C132.218042 9.96210833 132.3175 9.85856667 132.308167 9.73781667 132.255667 9.0769 132.070458 8.56706667 131.751958 8.20860833 131.397875 7.810775 130.904958 7.61156667 130.272917 7.61156667 129.640875 7.61156667 129.132208 7.81369167 128.746917 8.21823333M134.138958 11.2326083L128.2715 11.2326083C128.145792 11.2326083 128.045167 11.3434417 128.061792 11.4676917 128.161542 12.2096917 128.412083 12.7694 128.813417 13.1471083 129.255583 13.5644833 129.887333 13.773025 130.70925 13.773025 131.260792 13.773025 131.786958 13.67765 132.287458 13.4863167 133.016333 13.2083583 133.833292 13.5484417 134.134875 14.2679833 134.171625 14.3560667 134.147125 14.4596083 134.070708 14.5173583 133.662958 14.8253583 133.164792 15.0764833 132.5765 15.2707333 131.925208 15.4854 131.271292 15.5927333 130.614167 15.5927333 129.097792 15.5927333 127.900208 15.1634 127.021708 14.3035667 126.143208 13.4443167 125.703958 12.2691917 125.703958 10.7773167 125.703958 9.8294 125.893833 8.9894 126.273 8.25615 126.651875 7.52319167 127.185625 6.95444167 127.874833 6.54960833 128.563458 6.14565 129.34425 5.94294167 130.216333 5.94294167 131.492667 5.94294167 132.500667 6.3539 133.240042 7.175525 133.979417 7.99715 134.34925 9.12823333 134.34925 10.5690667L134.34925 11.0226083C134.34925 11.1386917 134.255042 11.2326083 134.138958 11.2326083M144.150271 6.89091667C144.693354 7.52325 144.965479 8.47729167 144.965479 9.753625L144.965479 15.441125C143.656771 15.441125 142.595688 14.3803333 142.595688 13.0713333L142.595688 9.886625C142.595688 9.16620833 142.459771 8.64179167 142.187938 8.31279167 141.916104 7.984375 141.489688 7.82016667 140.908396 7.82016667 140.225896 7.82016667 139.679021 8.035125 139.268646 8.46475 138.857688 8.894375 138.652063 9.46954167 138.652063 10.1899583L138.652063 15.441125C137.343354 15.441125 136.282271 14.3803333 136.282271 13.0713333L136.282271 6.1705 137.211229 6.1705C137.975688 6.1705 138.595479 6.79 138.595479 7.55445833 138.911063 7.03645833 139.334854 6.63833333 139.865688 6.360375 140.396521 6.08241667 140.996479 5.943 141.666438 5.943 142.778854 5.943 143.606604 6.25916667 144.150271 6.89091667"/>
    <g transform="translate(146.125 3.208)">
      <mask id="gigantum-logo-f" fill="#fff">
        <use xlink:href="#gigantum-logo-e"/>
      </mask>
      <path fill="#FFF" d="M6.8000625,11.4687125 L6.75747917,12.1290458 C6.75077083,12.2322958 6.66852083,12.3165875 6.56497917,12.3256292 C6.25552083,12.3521708 5.9679375,12.3655875 5.70310417,12.3655875 C4.40110417,12.3655875 3.44035417,12.0654625 2.8214375,11.4649208 C2.2019375,10.8649625 1.89247917,9.9707125 1.89247917,8.7824625 L1.89247917,4.9543375 C1.89247917,4.83854583 1.79827083,4.7443375 1.6821875,4.7443375 L0.320395833,4.7443375 C0.204604167,4.7443375 0.110395833,4.65042083 0.110395833,4.53462917 L0.110395833,4.5343375 C0.110395833,3.66604583 0.8141875,2.96225417 1.6821875,2.96225417 C1.79827083,2.96225417 1.89247917,2.8683375 1.89247917,2.75225417 L1.89247917,0.404045833 C1.89247917,0.288254167 1.98639583,0.1943375 2.10247917,0.1943375 C3.29510417,0.1943375 4.26227083,1.1612125 4.26227083,2.35412917 L4.26227083,2.75225417 C4.26227083,2.8683375 4.3561875,2.96225417 4.47227083,2.96225417 L6.49789583,2.96225417 C6.6136875,2.96225417 6.7081875,3.05617083 6.7081875,3.17225417 C6.7081875,4.04054583 6.00410417,4.7443375 5.1358125,4.7443375 L4.47227083,4.7443375 C4.3561875,4.7443375 4.26227083,4.83854583 4.26227083,4.9543375 L4.26227083,8.74454583 C4.26227083,9.98325417 4.8374375,10.6024625 5.98747917,10.6024625 C6.45764583,10.6021708 6.83039583,10.9994208 6.8000625,11.4687125" mask="url(#gigantum-logo-f)"/>
    </g>
  </g>
</svg>
