<svg xmlns="http://www.w3.org/2000/svg" viewBox="0 0 525 75"><defs><style>.cls-1{fill:#fff;}</style></defs><title>Gigantum Client Logo White</title><g id="dmk_edits" data-name="dmk edits"><path class="cls-1" d="M22,13.46c.38,0,.76,0,1.13.07A21.81,21.81,0,0,1,33,17a22.37,22.37,0,0,1,6.24-8.59,21.47,21.47,0,0,1,2.11-1.58c4-3,5.89-1.81,5.82-3.66,0-1.34-1.83-1.32-4.64-1.58A34.64,34.64,0,0,0,29,3,20.15,20.15,0,0,0,22,13.46Z"/><path class="cls-1" d="M8,20.54a20.55,20.55,0,0,0,2.26,12.51c.27-.26.55-.51.84-.76a21.89,21.89,0,0,1,9.41-4.69A23,23,0,0,1,19,17a20.28,20.28,0,0,1,.4-2.65h0a22.64,22.64,0,0,1,4.21-9.19A36.17,36.17,0,0,0,8,20.54Z"/><path class="cls-1" d="M22.9,15.86c-.49,0-1-.07-1.44-.08-.08.48-.14,1-.18,1.45a20.48,20.48,0,0,0,1.58,10,22.92,22.92,0,0,1,2.34-.12,21.78,21.78,0,0,1,6.2.9,23.08,23.08,0,0,1,.81-8.71A19.34,19.34,0,0,0,22.9,15.86Z"/><path class="cls-1" d="M4,34.35a36.52,36.52,0,0,0,1.36,13.8,19.82,19.82,0,0,0,10.24,7.21c0-.39,0-.77.08-1.15A23,23,0,0,1,19,44.09a22.12,22.12,0,0,1-8.41-6.37,21.77,21.77,0,0,1-1.55-2.16A22.68,22.68,0,0,1,5.7,26,36.69,36.69,0,0,0,4,34.35Z"/><path class="cls-1" d="M22.34,29.64a19.45,19.45,0,0,0-9.75,4.45c-.37.31-.73.64-1.07,1,.27.39.56.78.87,1.16a19.81,19.81,0,0,0,8,5.91,22.2,22.2,0,0,1,8.28-6.48,21.67,21.67,0,0,1,4.21-1.4,22.33,22.33,0,0,1-1.12-3.68A19.4,19.4,0,0,0,22.34,29.64Z"/><path class="cls-1" d="M19.05,58.41A23.1,23.1,0,0,1,16.46,58a21.91,21.91,0,0,1-9-4.3,36.34,36.34,0,0,0,15,15.92,19.48,19.48,0,0,0,12.25-2.31c-.26-.28-.51-.57-.75-.86a22.79,22.79,0,0,1-4.59-9.61A21.83,21.83,0,0,1,19.05,58.41Z"/><path class="cls-1" d="M33.27,38.6c.34-.47.71-.93,1.09-1.38-.15-.26-.29-.52-.43-.78a19.2,19.2,0,0,0-4.3,1.36,20,20,0,0,0-7.89,6.43,20.32,20.32,0,0,0-3.82,10.19c-.05.49-.07,1-.08,1.47.47.08.94.14,1.42.19A19.39,19.39,0,0,0,29,54.46a23.08,23.08,0,0,1,1.38-10.57A22.35,22.35,0,0,1,33.27,38.6Z"/><path class="cls-1" d="M56.58,61.91c-.38,0-.75,0-1.12-.07a21.81,21.81,0,0,1-9.9-3.48A22.47,22.47,0,0,1,39.32,67a22,22,0,0,1-11.48,5A34.93,34.93,0,0,0,36,73.77a34.49,34.49,0,0,0,13.51-1.39A20.23,20.23,0,0,0,56.58,61.91Z"/><path class="cls-1" d="M69.78,54.6a19.87,19.87,0,0,0-2.42-12.23c-.28.27-.57.52-.85.77-2.74,2.32-5,3.87-8.48,4.63a22.81,22.81,0,0,1,1.54,10.58,25,25,0,0,1-.4,2.65A22.9,22.9,0,0,1,55,70.19C61.53,66.86,66.29,61.23,69.78,54.6Z"/><path class="cls-1" d="M55.67,59.51c.48,0,1,.07,1.43.08.08-.48.14-1,.19-1.46a20.52,20.52,0,0,0-1.59-10,21.77,21.77,0,0,1-8.53-.77,23.1,23.1,0,0,1-.82,8.71A19.48,19.48,0,0,0,55.67,59.51Z"/><path class="cls-1" d="M38.17,42.1c-.35-.34-.71-.7-1-1.08s-.51-.57-.75-.87-.48-.6-.7-.91c-.2.25-.39.5-.58.76a19.9,19.9,0,0,0-2.56,4.74A20.57,20.57,0,0,0,31.41,55a20.27,20.27,0,0,0,4.35,10c.31.38.63.75,1,1.09.39-.28.77-.57,1.14-.89a20,20,0,0,0,6.06-9,20.6,20.6,0,0,0,.83-9.67,21.39,21.39,0,0,1-4.57-2.68A19.58,19.58,0,0,1,38.17,42.1Z"/><path class="cls-1" d="M73.47,32.88a7.74,7.74,0,0,0-7.28-6c-3.5-.09-8.3-.14-13.48.07a1,1,0,0,0-.26,2c7.71,2.41,12.52,5.2,15.9,9.72a18.13,18.13,0,0,1,4.16,10.88c0,.34,0,.68,0,1l0,0a32.16,32.16,0,0,0,1.83-12.1A32.09,32.09,0,0,0,73.47,32.88Z"/></g><g id="Layer_1" data-name="Layer 1"><path class="cls-1" d="M118.17,24.89a2.37,2.37,0,0,1,2.36,2.37v27.4q0,6.72-3.16,10.14t-9.43,3.43a20.28,20.28,0,0,1-13-4.27.35.35,0,0,1-.08-.45h0a2.15,2.15,0,0,1,3-.74,19.78,19.78,0,0,0,3.94,1.94,19.56,19.56,0,0,0,6.2.87c3.23,0,5.69-.9,7.37-2.68s2.52-4.41,2.52-7.85V49.79a.35.35,0,0,0-.65-.16,10.21,10.21,0,0,1-3.58,3.77,12.92,12.92,0,0,1-7,1.78,13.89,13.89,0,0,1-7.33-1.94,13.06,13.06,0,0,1-5-5.49,17.89,17.89,0,0,1-1.78-8.14,17.69,17.69,0,0,1,1.78-8.1,13.09,13.09,0,0,1,5-5.46,13.89,13.89,0,0,1,7.33-1.94,12.89,12.89,0,0,1,6.85,1.75,10.55,10.55,0,0,1,3.62,3.71.34.34,0,0,0,.64-.17V25.24a.35.35,0,0,1,.35-.35Zm-3.29,24.19q2.94-3.46,2.94-9.47t-2.94-9.43a10.19,10.19,0,0,0-8.17-3.42,10.33,10.33,0,0,0-8.17,3.42q-3,3.43-3,9.43t3,9.5a10.33,10.33,0,0,0,8.17,3.42A10.15,10.15,0,0,0,114.88,49.08Z"/><path class="cls-1" d="M131.82,13.41h1a1.4,1.4,0,0,1,1.39,1.4v.95a.34.34,0,0,1-.34.35h-1a1.37,1.37,0,0,1-1.38-1.37v-1A.35.35,0,0,1,131.82,13.41Zm-.31,40.37V25.24a.35.35,0,0,1,.35-.35h0a2.36,2.36,0,0,1,2.36,2.37V55.8a.35.35,0,0,1-.34.35h0A2.37,2.37,0,0,1,131.51,53.78Z"/><path class="cls-1" d="M168.61,24.89A2.37,2.37,0,0,1,171,27.26v27.4q0,6.72-3.16,10.14t-9.43,3.43a20.26,20.26,0,0,1-13-4.27.35.35,0,0,1-.08-.45h0a2.14,2.14,0,0,1,3-.74,16.82,16.82,0,0,0,10.14,2.81c3.23,0,5.69-.9,7.37-2.68s2.51-4.41,2.51-7.85V49.79a.34.34,0,0,0-.64-.16,10.16,10.16,0,0,1-3.59,3.77,12.88,12.88,0,0,1-6.94,1.78,13.89,13.89,0,0,1-7.33-1.94,13.06,13.06,0,0,1-5-5.49,17.89,17.89,0,0,1-1.78-8.14,17.69,17.69,0,0,1,1.78-8.1,13.09,13.09,0,0,1,5-5.46,13.89,13.89,0,0,1,7.33-1.94A12.89,12.89,0,0,1,164,25.86a10.55,10.55,0,0,1,3.62,3.71.34.34,0,0,0,.64-.17V25.24a.34.34,0,0,1,.35-.35Zm-3.29,24.19q2.94-3.46,2.94-9.47t-2.94-9.43a10.19,10.19,0,0,0-8.17-3.42A10.32,10.32,0,0,0,149,30.18q-3,3.43-3,9.43t3,9.5a10.32,10.32,0,0,0,8.17,3.42A10.15,10.15,0,0,0,165.32,49.08Z"/><path class="cls-1" d="M204.75,35.67V55.8a.35.35,0,0,1-.35.35h0A2.43,2.43,0,0,1,202,53.72v-2a.34.34,0,0,0-.63-.19A10.35,10.35,0,0,1,197.87,55a11.65,11.65,0,0,1-6.1,1.61,12.16,12.16,0,0,1-5.46-1.23A9.8,9.8,0,0,1,182.37,52a8.3,8.3,0,0,1-1.45-4.74,7.44,7.44,0,0,1,1.84-5.4c1.22-1.27,3.25-2.18,6.07-2.74a64.34,64.34,0,0,1,11.85-.84h.94a.35.35,0,0,0,.35-.35V35.55q0-4.59-1.81-6.69t-5.75-2.1a18.35,18.35,0,0,0-5.58.81A20,20,0,0,0,185.46,29a2.29,2.29,0,0,1-3.1-.89h0a.35.35,0,0,1,.1-.45,19.26,19.26,0,0,1,5.27-2.56,20.54,20.54,0,0,1,6.3-1Q204.74,24.11,204.75,35.67ZM197,52.5a9.92,9.92,0,0,0,3.65-3.84A11.56,11.56,0,0,0,202,43.1v-2a.34.34,0,0,0-.35-.34h-.88a72.07,72.07,0,0,0-10.33.55c-2.37.36-4,1-5,1.87A5.06,5.06,0,0,0,184,47.11,6.16,6.16,0,0,0,186.21,52a8.2,8.2,0,0,0,5.56,1.91A10,10,0,0,0,197,52.5Z"/><path class="cls-1" d="M240.46,36V55.8a.35.35,0,0,1-.34.35h0a2.37,2.37,0,0,1-2.37-2.37V36.26q0-5-2-7.27t-6.46-2.29a10.65,10.65,0,0,0-8,3.07,11.16,11.16,0,0,0-3,8.17V55.8a.35.35,0,0,1-.35.35h0a2.37,2.37,0,0,1-2.36-2.37V25.24a.34.34,0,0,1,.35-.35h0a2.3,2.3,0,0,1,2.3,2.3v1.94a.34.34,0,0,0,.64.17,10.24,10.24,0,0,1,3.65-3.54,12.94,12.94,0,0,1,6.56-1.65Q240.46,24.11,240.46,36Z"/><path class="cls-1" d="M265.6,56h0a.34.34,0,0,1-.3.33,21.69,21.69,0,0,1-2.62.16q-4.85,0-7.46-2.81a10.64,10.64,0,0,1-2.62-7.53V27.56a.35.35,0,0,0-.34-.35h-5.57a.34.34,0,0,1-.35-.34h0a2,2,0,0,1,2-2h3.94a.35.35,0,0,0,.34-.35V15.48a.35.35,0,0,1,.35-.34h0a2.37,2.37,0,0,1,2.37,2.36v7a.35.35,0,0,0,.34.35h8.74a.35.35,0,0,1,.35.35h0a2,2,0,0,1-2,2h-7.11a.35.35,0,0,0-.34.35V45.62c0,2.76.64,4.84,1.93,6.27A7.4,7.4,0,0,0,263,54h.59A1.94,1.94,0,0,1,265.6,56Z"/><path class="cls-1" d="M295.81,27.25V55.8a.35.35,0,0,1-.35.35h0a2.3,2.3,0,0,1-2.3-2.3V51.6a.35.35,0,0,0-.64-.18A10.63,10.63,0,0,1,288.87,55a12.36,12.36,0,0,1-6.36,1.65q-5.43,0-8.24-3t-2.81-8.91V25.24a.35.35,0,0,1,.35-.35h0a2.36,2.36,0,0,1,2.36,2.37V44.39q0,4.92,2,7.24t6.2,2.32a10.26,10.26,0,0,0,7.78-3.07,11.29,11.29,0,0,0,2.94-8.17V25.24a.34.34,0,0,1,.34-.35h0A2.37,2.37,0,0,1,295.81,27.25Z"/><path class="cls-1" d="M349.8,36V55.8a.35.35,0,0,1-.34.35h0a2.37,2.37,0,0,1-2.37-2.37V36.26q0-5-1.81-7.27t-5.75-2.29a9.14,9.14,0,0,0-7.2,3,12,12,0,0,0-2.68,8.21V55.8a.35.35,0,0,1-.34.35h0a2.37,2.37,0,0,1-2.37-2.37V36.26q0-5-1.81-7.27t-5.75-2.29a9.14,9.14,0,0,0-7.2,3,12,12,0,0,0-2.68,8.21V55.8a.35.35,0,0,1-.34.35h0a2.37,2.37,0,0,1-2.37-2.37V25.24a.34.34,0,0,1,.35-.35h0a2.3,2.3,0,0,1,2.3,2.3v1.72a.34.34,0,0,0,.64.18,9.47,9.47,0,0,1,3.2-3.36,11,11,0,0,1,6-1.62q7.05,0,9.35,5.55a.34.34,0,0,0,.62,0,10.31,10.31,0,0,1,3.82-3.91,12.14,12.14,0,0,1,6.36-1.68Q349.81,24.11,349.8,36Z"/><path class="cls-1" d="M367,55a13.65,13.65,0,0,1-5.62-5.72,18.33,18.33,0,0,1-1.95-8.65,17.13,17.13,0,0,1,4.38-12l.06-.06Q369.52,23,379,24.08l.08,0a17.54,17.54,0,0,1,8.3,3.43.71.71,0,0,1,.19.82l-.07.18a4.86,4.86,0,0,1-6.29,2.61l0,0a12.66,12.66,0,0,0-4.45-.85,8.32,8.32,0,0,0-6.57,2.64c-1.56,1.75-2.34,4.28-2.34,7.57s.78,5.75,2.34,7.51a8.35,8.35,0,0,0,6.57,2.63,12.44,12.44,0,0,0,4.45-.85h0a4.87,4.87,0,0,1,6.31,2.61l0,.1a.72.72,0,0,1-.19.83,15.09,15.09,0,0,1-4.93,2.62A21.59,21.59,0,0,1,375.63,57,17.81,17.81,0,0,1,367,55Z"/><path class="cls-1" d="M392.85,49.07V11.37a.72.72,0,0,1,.72-.72h0a7.4,7.4,0,0,1,7.4,7.4v37.7a.72.72,0,0,1-.72.72h0A7.4,7.4,0,0,1,392.85,49.07Z"/><path class="cls-1" d="M410,10.65h3.89a3.6,3.6,0,0,1,3.6,3.6v3a.65.65,0,0,1-.65.65h-3.89a3.6,3.6,0,0,1-3.6-3.6v-3A.65.65,0,0,1,410,10.65Zm-.61,38.42V25.41a.72.72,0,0,1,.72-.72h0a7.4,7.4,0,0,1,7.41,7.4V55.75a.72.72,0,0,1-.72.72h0A7.41,7.41,0,0,1,409.36,49.07Z"/><path class="cls-1" d="M453,42H432.92a.72.72,0,0,0-.72.81,9.33,9.33,0,0,0,2.58,5.76q2.27,2.14,6.5,2.14a15.17,15.17,0,0,0,5.41-1A4.92,4.92,0,0,1,453,52.45h0a.71.71,0,0,1-.22.85,17.55,17.55,0,0,1-5.12,2.59A21.55,21.55,0,0,1,441,57q-7.8,0-12.32-4.42t-4.51-12.09a18.52,18.52,0,0,1,1.95-8.64A14.19,14.19,0,0,1,431.56,26a15.62,15.62,0,0,1,8-2.08q6.56,0,10.36,4.23t3.81,11.64v1.55A.72.72,0,0,1,453,42ZM434.55,31.71a9.52,9.52,0,0,0-2.32,5.15.72.72,0,0,0,.71.83H446a.73.73,0,0,0,.73-.77,8.75,8.75,0,0,0-1.91-5.25,6.43,6.43,0,0,0-5.07-2A6.87,6.87,0,0,0,434.55,31.71Z"/><path class="cls-1" d="M487.36,27.15q2.79,3.26,2.79,9.82v18.5a1,1,0,0,1-1,1h0A7.12,7.12,0,0,1,482,49.35V37.43q0-3.7-1.4-5.4a5.35,5.35,0,0,0-4.39-1.69,7.43,7.43,0,0,0-5.62,2.21,8.2,8.2,0,0,0-2.11,5.92v17a1,1,0,0,1-1,1h0a7.13,7.13,0,0,1-7.13-7.12V25.69a1,1,0,0,1,1-1h2.19a4.74,4.74,0,0,1,4.74,4.74h0a11,11,0,0,1,4.36-4.09,13,13,0,0,1,6.17-1.44C482.66,23.9,485.49,25,487.36,27.15Z"/><path class="cls-1" d="M517.44,53.85l-.14,2.26a.73.73,0,0,1-.66.68c-1.06.09-2,.14-3,.14q-6.69,0-9.88-3.09t-3.18-9.2V31.52a.72.72,0,0,0-.72-.72h-4.67a.72.72,0,0,1-.72-.72h0a5.38,5.38,0,0,1,5.39-5.38h0a.72.72,0,0,0,.72-.72V15.91a.72.72,0,0,1,.72-.72h0a7.4,7.4,0,0,1,7.4,7.41V24a.73.73,0,0,0,.72.72h6.95a.72.72,0,0,1,.72.72h0a5.39,5.39,0,0,1-5.39,5.39h-2.28a.72.72,0,0,0-.72.72v13q0,6.38,5.92,6.37h0A2.78,2.78,0,0,1,517.44,53.85Z"/></g></svg>