<svg xmlns="http://www.w3.org/2000/svg" width="35" height="35" viewBox="0 0 35 35">
    <g fill="none" fill-rule="evenodd">
        <path fill="#9B9C9E" d="M17.5.73c9.262 0 16.77 7.508 16.77 16.77S26.763 34.27 17.5 34.27.73 26.763.73 17.5 8.237.73 17.5.73zm0 6.562c-.805 0-1.458.653-1.458 1.458l-.001 7.29-7.291.002c-.805 0-1.458.653-1.458 1.458 0 .805.653 1.458 1.458 1.458h7.29l.002 7.292c0 .805.653 1.458 1.458 1.458.805 0 1.458-.653 1.458-1.458v-7.292h7.292c.805 0 1.458-.653 1.458-1.458 0-.805-.653-1.458-1.458-1.458l-7.292-.001V8.75c0-.805-.653-1.458-1.458-1.458z"/>
    </g>
</svg>
