<svg xmlns="http://www.w3.org/2000/svg" data-name="Слой 1" viewBox="0 0 128 160" x="0px" y="0px"><title>ic_reset_laptop</title><path d="M126,94H115.67a5.94,5.94,0,0,0,.33-1.94V27.94A6,6,0,0,0,110.06,22H17.94A6,6,0,0,0,12,27.94V92.06A5.94,5.94,0,0,0,12.33,94H2a2,2,0,0,0-2,2v.5C0,101,3.63,106,8.5,106h111c4.87,0,8.5-5,8.5-9.5V96A2,2,0,0,0,126,94ZM16,92.06V27.94A1.94,1.94,0,0,1,17.94,26h92.12A1.94,1.94,0,0,1,112,27.94V92.06A1.94,1.94,0,0,1,110.06,94H17.94A1.94,1.94,0,0,1,16,92.06ZM119.5,102H8.5c-1.95,0-3.67-2-4.27-4H123.77C123.17,100.05,121.45,102,119.5,102Z"/><path d="M64,42A18,18,0,1,0,79.3,69.48a2,2,0,0,0-.64-2.75,2,2,0,0,0-2.76.64,14,14,0,1,1,1.66-10.78L70.13,53a2,2,0,0,0-1.75,3.6L79.12,61.8h0a1.33,1.33,0,0,0,.3.11l.11,0a1.42,1.42,0,0,0,.36,0H80a2,2,0,0,0,.48-.07l.12,0a1.94,1.94,0,0,0,.36-.15l.1-.06a2.18,2.18,0,0,0,.38-.3l.07-.09a2.71,2.71,0,0,0,.24-.35l0-.06s0,0,0-.05a1.59,1.59,0,0,0,.07-.2l.06-.18c0-.06,0-.12,0-.18l0-.22v0A18,18,0,0,0,64,42Z"/><text x="0" y="143" fill="#000000" font-size="5px" font-weight="bold" font-family="'Helvetica Neue', Helvetica, Arial-Unicode, Arial, Sans-serif">Created by LAFS</text><text x="0" y="148" fill="#000000" font-size="5px" font-weight="bold" font-family="'Helvetica Neue', Helvetica, Arial-Unicode, Arial, Sans-serif">from the Noun Project</text></svg>